<?xml version="1.0" encoding="utf-8"?>
<!-- Generator: Adobe Illustrator 21.0.0, SVG Export Plug-In . SVG Version: 6.00 Build 0)  -->
<svg version="1.1" id="Layer_1" xmlns="http://www.w3.org/2000/svg" xmlns:xlink="http://www.w3.org/1999/xlink" x="0px" y="0px"
	 viewBox="0 0 512 512" style="enable-background:new 0 0 512 512;" xml:space="preserve">
<g>
	<path d="M195.4,8.4c-18.1,0-33.9,9.3-45.1,21.3c-11.2,12-19.3,27-26.4,43.2c-11,25-18.8,52.7-25.8,78.7
		c-22.4,6.5-41.4,14.7-56.7,24.5c-17.9,11.5-32.9,27.5-32.9,49c0,18.7,11.4,33.7,25.8,44.5c12.3,9.2,27.3,16.8,45.1,23.2
		c1,4.8,2.6,9.6,4.5,14.2c-17.4,9.8-45,28.9-71.6,65.1L0,389.5l17.4,12.3l67.7,46.4l-27.7,55.5h397.2l-27.7-55.5l67.7-46.4
		l17.4-12.3l-12.3-17.4c-26.6-36.3-54.2-55.3-71.6-65.1c1.9-4.6,3.5-9.4,4.5-14.2c17.8-6.4,32.9-14,45.1-23.2
		c14.3-10.8,25.8-25.8,25.8-44.5c0-21.5-15-37.5-32.9-49c-15.3-9.8-34.3-18-56.7-24.5c-7.7-26.9-16.3-55.1-27.1-80
		c-7-16-14.8-30.8-25.8-42.6S334.3,8.4,316.6,8.4c-12,0-21.1,3.3-31,5.8c-9.8,2.5-19.7,4.5-29.7,4.5C236.2,18.7,219.6,8.4,195.4,8.4
		z M195.4,49.7C199.7,49.7,225,60,256,60c15.5,0,29.3-3.1,40-5.8c10.7-2.7,18.9-4.5,20.6-4.5c4.8,0,8.3,1.5,14.2,7.7
		c5.9,6.2,12.8,17.4,18.7,31c11.2,25.6,19.7,60.6,29,92.9c0-0.1,1.1-1-1.9,0.6c-5.2,2.8-16,6.4-29,8.4c-26.2,3.9-61.9,3.9-91.6,3.9
		c-29.5,0-65.3-0.4-91.6-4.5c-13.1-2-23.8-5.6-29-8.4l-2.6-0.6v-0.6v-0.6l0.6-0.6c1.5-2.7,2.4-5.9,2.6-9v-0.6
		c7.4-27.4,15.7-56.4,25.8-79.3c6-13.8,12.6-25,18.7-31.6S190.9,49.7,195.4,49.7z M94.8,196c4.7,9.7,12.9,17.4,21.3,21.9
		c12.6,6.7,27,9.8,42.6,12.3c31.1,4.8,67.5,5.2,97.4,5.2c29.7,0,66.2,0.2,97.4-4.5c15.6-2.3,29.9-5.4,42.6-12.3
		c8.5-4.6,16.7-12.7,21.3-22.6c12.7,4.5,23.5,9.4,31,14.2c12,7.7,14.2,13.5,14.2,14.8c0,1.2-1,5.2-9.7,11.6
		c-8.6,6.4-23.5,13.9-42.6,20c-38.2,12.2-93.2,20-154.1,20s-115.9-7.8-154.1-20c-19.1-6-33.9-13.5-42.6-20s-9.7-10.4-9.7-11.6
		c0-1.4,1.6-6.5,13.5-14.2C70.7,206,81.7,200.8,94.8,196z M148.3,308.9c6.8,1.1,13.5,3,20.6,3.9c2.7,18.1,16.8,34.1,39.3,35.5
		c17.4,1,37-7.2,38.7-30.3c3.1,0,6,0,9,0c3.1,0,6,0,9,0c1.7,23.1,21.3,31.4,38.7,30.3c22.6-1.4,36.7-17.3,39.3-35.5
		c7.2-0.9,13.9-2.7,20.6-3.9l-1.9,12.9c-6.4,33.9-21.5,65.4-40.6,87.1C302,430.5,279.6,442,256,441.7c-24.3-0.3-46.2-12-65.1-33.5
		c-18.9-21.5-33.9-52.3-40.6-86.4L148.3,308.9z M400.4,338.5c7.7,4.5,27.8,17.7,50.9,43.2l-62.5,43.2l-14.8,9.7l7.7,16.1l5.8,11.6
		h-65.1c10.8-7.3,20.8-16.4,29.7-26.4c22.7-25.8,38-59.6,46.4-96.1L400.4,338.5z M110.9,339.2l2.6,1.3c8.9,36,24,69.4,46.4,94.8
		c9.3,10.6,20.1,19.6,31.6,27.1h-67.1l5.8-11.6l7.7-16.1l-14.8-9.7l-62.5-43.2C82.5,357.6,102.4,344.3,110.9,339.2z"/>
</g>
</svg>
